<mxfile host="app.diagrams.net" agent="Mozilla/5.0 (Windows NT 10.0; Win64; x64) AppleWebKit/537.36 (KHTML, like Gecko) Chrome/132.0.0.0 Safari/537.36" version="26.0.15">
  <diagram id="C5RBs43oDa-KdzZeNtuy" name="Page-1">
    <mxGraphModel dx="1396" dy="819" grid="1" gridSize="10" guides="1" tooltips="1" connect="1" arrows="1" fold="1" page="1" pageScale="1" pageWidth="827" pageHeight="1169" math="0" shadow="0">
      <root>
        <mxCell id="WIyWlLk6GJQsqaUBKTNV-0" />
        <mxCell id="WIyWlLk6GJQsqaUBKTNV-1" parent="WIyWlLk6GJQsqaUBKTNV-0" />
        <mxCell id="qgIhc6_JNdEepbSHiWrf-15" style="edgeStyle=orthogonalEdgeStyle;rounded=0;orthogonalLoop=1;jettySize=auto;html=1;entryX=0.5;entryY=0;entryDx=0;entryDy=0;" edge="1" parent="WIyWlLk6GJQsqaUBKTNV-1" source="WIyWlLk6GJQsqaUBKTNV-3" target="qgIhc6_JNdEepbSHiWrf-14">
          <mxGeometry relative="1" as="geometry">
            <Array as="points">
              <mxPoint x="1100" y="200" />
            </Array>
          </mxGeometry>
        </mxCell>
        <mxCell id="qgIhc6_JNdEepbSHiWrf-21" style="edgeStyle=orthogonalEdgeStyle;rounded=0;orthogonalLoop=1;jettySize=auto;html=1;entryX=0.5;entryY=0;entryDx=0;entryDy=0;" edge="1" parent="WIyWlLk6GJQsqaUBKTNV-1" source="WIyWlLk6GJQsqaUBKTNV-3" target="qgIhc6_JNdEepbSHiWrf-18">
          <mxGeometry relative="1" as="geometry">
            <Array as="points">
              <mxPoint x="1080" y="130" />
              <mxPoint x="740" y="130" />
            </Array>
          </mxGeometry>
        </mxCell>
        <mxCell id="qgIhc6_JNdEepbSHiWrf-38" style="edgeStyle=orthogonalEdgeStyle;rounded=0;orthogonalLoop=1;jettySize=auto;html=1;entryX=0.5;entryY=0;entryDx=0;entryDy=0;" edge="1" parent="WIyWlLk6GJQsqaUBKTNV-1" target="qgIhc6_JNdEepbSHiWrf-24">
          <mxGeometry relative="1" as="geometry">
            <mxPoint x="1130" y="80" as="sourcePoint" />
            <mxPoint x="430" y="220" as="targetPoint" />
            <Array as="points">
              <mxPoint x="1050" y="80" />
              <mxPoint x="1050" y="120" />
              <mxPoint x="330" y="120" />
            </Array>
          </mxGeometry>
        </mxCell>
        <mxCell id="WIyWlLk6GJQsqaUBKTNV-3" value="Koronaviruset stammer fra et våtmarked i Wuhan" style="rounded=1;whiteSpace=wrap;html=1;fontSize=12;glass=0;strokeWidth=1;shadow=0;fillColor=#dae8fc;strokeColor=#6c8ebf;" parent="WIyWlLk6GJQsqaUBKTNV-1" vertex="1">
          <mxGeometry x="1040" y="40" width="120" height="40" as="geometry" />
        </mxCell>
        <mxCell id="qgIhc6_JNdEepbSHiWrf-4" style="edgeStyle=orthogonalEdgeStyle;rounded=0;orthogonalLoop=1;jettySize=auto;html=1;exitX=0.75;exitY=1;exitDx=0;exitDy=0;" edge="1" parent="WIyWlLk6GJQsqaUBKTNV-1" source="WIyWlLk6GJQsqaUBKTNV-3" target="qgIhc6_JNdEepbSHiWrf-0">
          <mxGeometry relative="1" as="geometry">
            <Array as="points">
              <mxPoint x="1130" y="120" />
              <mxPoint x="1600" y="120" />
            </Array>
          </mxGeometry>
        </mxCell>
        <mxCell id="qgIhc6_JNdEepbSHiWrf-0" value="Furinkløyvesetet var &quot;ute av rammen&quot;" style="rounded=1;whiteSpace=wrap;html=1;fillColor=#fff2cc;strokeColor=#d6b656;" vertex="1" parent="WIyWlLk6GJQsqaUBKTNV-1">
          <mxGeometry x="1540" y="220" width="120" height="60" as="geometry" />
        </mxCell>
        <mxCell id="qgIhc6_JNdEepbSHiWrf-5" style="edgeStyle=orthogonalEdgeStyle;rounded=0;orthogonalLoop=1;jettySize=auto;html=1;" edge="1" parent="WIyWlLk6GJQsqaUBKTNV-1" target="qgIhc6_JNdEepbSHiWrf-1">
          <mxGeometry relative="1" as="geometry">
            <mxPoint x="1600" y="190" as="sourcePoint" />
            <Array as="points">
              <mxPoint x="1600" y="120" />
              <mxPoint x="1730" y="120" />
            </Array>
          </mxGeometry>
        </mxCell>
        <mxCell id="qgIhc6_JNdEepbSHiWrf-1" value="&lt;font style=&quot;font-size: 8px;&quot;&gt;Hvis furinkløyvesetet ble konstruert i et laboratorium, burde man frovente at det var optimalt&lt;/font&gt;" style="rounded=1;whiteSpace=wrap;html=1;fillColor=#fff2cc;strokeColor=#d6b656;" vertex="1" parent="WIyWlLk6GJQsqaUBKTNV-1">
          <mxGeometry x="1670" y="220" width="120" height="60" as="geometry" />
        </mxCell>
        <mxCell id="qgIhc6_JNdEepbSHiWrf-8" value="&lt;font style=&quot;font-size: 10px;&quot;&gt;Tidlige data viser at det var smitteklynger rundt markadet i Wuhan.&lt;/font&gt;" style="rounded=1;whiteSpace=wrap;html=1;fillColor=#d5e8d4;strokeColor=#82b366;" vertex="1" parent="WIyWlLk6GJQsqaUBKTNV-1">
          <mxGeometry x="1070" y="345" width="120" height="90" as="geometry" />
        </mxCell>
        <mxCell id="qgIhc6_JNdEepbSHiWrf-11" style="edgeStyle=orthogonalEdgeStyle;rounded=0;orthogonalLoop=1;jettySize=auto;html=1;" edge="1" parent="WIyWlLk6GJQsqaUBKTNV-1" target="qgIhc6_JNdEepbSHiWrf-10">
          <mxGeometry relative="1" as="geometry">
            <mxPoint x="1230" y="320" as="sourcePoint" />
            <Array as="points">
              <mxPoint x="1260" y="320" />
            </Array>
          </mxGeometry>
        </mxCell>
        <mxCell id="qgIhc6_JNdEepbSHiWrf-10" value="Slike smitteklynger fantes ingen andre steder, inkludert det mistenkte laboratoriet&amp;nbsp;" style="rounded=1;whiteSpace=wrap;html=1;fillColor=#d5e8d4;strokeColor=#82b366;" vertex="1" parent="WIyWlLk6GJQsqaUBKTNV-1">
          <mxGeometry x="1200" y="345" width="120" height="80" as="geometry" />
        </mxCell>
        <mxCell id="qgIhc6_JNdEepbSHiWrf-13" style="edgeStyle=orthogonalEdgeStyle;rounded=0;orthogonalLoop=1;jettySize=auto;html=1;" edge="1" parent="WIyWlLk6GJQsqaUBKTNV-1" target="qgIhc6_JNdEepbSHiWrf-12">
          <mxGeometry relative="1" as="geometry">
            <mxPoint x="1260" y="320.0000000000001" as="sourcePoint" />
            <Array as="points">
              <mxPoint x="1390" y="320" />
            </Array>
          </mxGeometry>
        </mxCell>
        <mxCell id="qgIhc6_JNdEepbSHiWrf-12" value="Laboratoriet og markedet er skilt med mange kilometer og Yangtzee- elven som renner mellom" style="rounded=1;whiteSpace=wrap;html=1;fillColor=#d5e8d4;strokeColor=#82b366;" vertex="1" parent="WIyWlLk6GJQsqaUBKTNV-1">
          <mxGeometry x="1330" y="345" width="120" height="85" as="geometry" />
        </mxCell>
        <mxCell id="qgIhc6_JNdEepbSHiWrf-16" style="edgeStyle=orthogonalEdgeStyle;rounded=0;orthogonalLoop=1;jettySize=auto;html=1;entryX=0.5;entryY=0;entryDx=0;entryDy=0;exitX=0.5;exitY=1;exitDx=0;exitDy=0;" edge="1" parent="WIyWlLk6GJQsqaUBKTNV-1" source="qgIhc6_JNdEepbSHiWrf-14" target="qgIhc6_JNdEepbSHiWrf-8">
          <mxGeometry relative="1" as="geometry">
            <Array as="points">
              <mxPoint x="1260" y="320" />
              <mxPoint x="1130" y="320" />
            </Array>
          </mxGeometry>
        </mxCell>
        <mxCell id="qgIhc6_JNdEepbSHiWrf-14" value="Smittemønstrene fra den aller tidligste fasen tyder på at markedet i Wuhan var episenteret" style="rounded=1;whiteSpace=wrap;html=1;fillColor=#fff2cc;strokeColor=#d6b656;" vertex="1" parent="WIyWlLk6GJQsqaUBKTNV-1">
          <mxGeometry x="1200" y="220" width="120" height="70" as="geometry" />
        </mxCell>
        <mxCell id="qgIhc6_JNdEepbSHiWrf-23" style="edgeStyle=orthogonalEdgeStyle;rounded=0;orthogonalLoop=1;jettySize=auto;html=1;exitX=0.5;exitY=0;exitDx=0;exitDy=0;entryX=0.5;entryY=0;entryDx=0;entryDy=0;" edge="1" parent="WIyWlLk6GJQsqaUBKTNV-1" target="qgIhc6_JNdEepbSHiWrf-17">
          <mxGeometry relative="1" as="geometry">
            <mxPoint x="600" y="210" as="targetPoint" />
            <mxPoint x="740" y="180.0000000000001" as="sourcePoint" />
            <Array as="points">
              <mxPoint x="610" y="180" />
            </Array>
          </mxGeometry>
        </mxCell>
        <mxCell id="qgIhc6_JNdEepbSHiWrf-17" value="Viruset hadde i tidlige faser to distinkte grener på slektrstreet" style="rounded=1;whiteSpace=wrap;html=1;fillColor=#fff2cc;strokeColor=#d6b656;" vertex="1" parent="WIyWlLk6GJQsqaUBKTNV-1">
          <mxGeometry x="550" y="220" width="120" height="60" as="geometry" />
        </mxCell>
        <mxCell id="qgIhc6_JNdEepbSHiWrf-18" value="Begge disse to grenene kan knyttes til våtmarkedet" style="rounded=1;whiteSpace=wrap;html=1;fillColor=#fff2cc;strokeColor=#d6b656;" vertex="1" parent="WIyWlLk6GJQsqaUBKTNV-1">
          <mxGeometry x="680" y="220" width="120" height="60" as="geometry" />
        </mxCell>
        <mxCell id="qgIhc6_JNdEepbSHiWrf-22" style="edgeStyle=orthogonalEdgeStyle;rounded=0;orthogonalLoop=1;jettySize=auto;html=1;" edge="1" parent="WIyWlLk6GJQsqaUBKTNV-1" target="qgIhc6_JNdEepbSHiWrf-20">
          <mxGeometry relative="1" as="geometry">
            <mxPoint x="740" y="180.0000000000001" as="sourcePoint" />
            <Array as="points">
              <mxPoint x="906" y="180" />
            </Array>
          </mxGeometry>
        </mxCell>
        <mxCell id="qgIhc6_JNdEepbSHiWrf-20" value="Flere distinkte grener av et virus tilknyttet samme lokasjon tyder på en konstant smittekontakt mellom dyr og mennesker, fremfor et enkelt smitteuhell i et laboratorium" style="rounded=1;whiteSpace=wrap;html=1;fillColor=#fff2cc;strokeColor=#d6b656;" vertex="1" parent="WIyWlLk6GJQsqaUBKTNV-1">
          <mxGeometry x="811" y="220" width="190" height="85" as="geometry" />
        </mxCell>
        <mxCell id="qgIhc6_JNdEepbSHiWrf-27" style="edgeStyle=orthogonalEdgeStyle;rounded=0;orthogonalLoop=1;jettySize=auto;html=1;" edge="1" parent="WIyWlLk6GJQsqaUBKTNV-1" source="qgIhc6_JNdEepbSHiWrf-24" target="qgIhc6_JNdEepbSHiWrf-25">
          <mxGeometry relative="1" as="geometry">
            <Array as="points">
              <mxPoint x="320" y="345" />
              <mxPoint x="320" y="345" />
            </Array>
          </mxGeometry>
        </mxCell>
        <mxCell id="qgIhc6_JNdEepbSHiWrf-35" style="edgeStyle=orthogonalEdgeStyle;rounded=0;orthogonalLoop=1;jettySize=auto;html=1;entryX=0.5;entryY=0;entryDx=0;entryDy=0;" edge="1" parent="WIyWlLk6GJQsqaUBKTNV-1" source="qgIhc6_JNdEepbSHiWrf-24" target="qgIhc6_JNdEepbSHiWrf-33">
          <mxGeometry relative="1" as="geometry">
            <Array as="points">
              <mxPoint x="360" y="305" />
              <mxPoint x="460" y="305" />
            </Array>
          </mxGeometry>
        </mxCell>
        <mxCell id="qgIhc6_JNdEepbSHiWrf-24" value="Et bestemt område av markedet peker seg ut som et mulig&amp;nbsp; smittesenter" style="rounded=1;whiteSpace=wrap;html=1;fillColor=#fff2cc;strokeColor=#d6b656;" vertex="1" parent="WIyWlLk6GJQsqaUBKTNV-1">
          <mxGeometry x="270" y="220" width="120" height="60" as="geometry" />
        </mxCell>
        <mxCell id="qgIhc6_JNdEepbSHiWrf-25" value="Det ble solgt ville dyr i denne delen av markedet" style="rounded=1;whiteSpace=wrap;html=1;fillColor=#d5e8d4;strokeColor=#82b366;" vertex="1" parent="WIyWlLk6GJQsqaUBKTNV-1">
          <mxGeometry x="250" y="365" width="120" height="60" as="geometry" />
        </mxCell>
        <mxCell id="qgIhc6_JNdEepbSHiWrf-26" value="En spesifik salgsbod hadde funn av viruset i bur, avrenneringer hvor dyrene ble oppbevart og i en maskin brukt for å fjærne pels og fjær fra dyrene" style="rounded=1;whiteSpace=wrap;html=1;fillColor=#d5e8d4;strokeColor=#82b366;" vertex="1" parent="WIyWlLk6GJQsqaUBKTNV-1">
          <mxGeometry x="50" y="340" width="170" height="90" as="geometry" />
        </mxCell>
        <mxCell id="qgIhc6_JNdEepbSHiWrf-30" value="Dette er en observasjon som var predikert for å underbygg standpunktet og så etter ble bekreftet av Andersen og kollegaer selv" style="rounded=1;whiteSpace=wrap;html=1;fillColor=#d5e8d4;strokeColor=#82b366;" vertex="1" parent="WIyWlLk6GJQsqaUBKTNV-1">
          <mxGeometry x="370" y="505" width="180" height="95" as="geometry" />
        </mxCell>
        <mxCell id="qgIhc6_JNdEepbSHiWrf-32" style="edgeStyle=orthogonalEdgeStyle;rounded=0;orthogonalLoop=1;jettySize=auto;html=1;entryX=0.455;entryY=0.029;entryDx=0;entryDy=0;entryPerimeter=0;" edge="1" parent="WIyWlLk6GJQsqaUBKTNV-1" source="qgIhc6_JNdEepbSHiWrf-24" target="qgIhc6_JNdEepbSHiWrf-26">
          <mxGeometry relative="1" as="geometry">
            <Array as="points">
              <mxPoint x="290" y="305" />
              <mxPoint x="127" y="305" />
            </Array>
          </mxGeometry>
        </mxCell>
        <mxCell id="qgIhc6_JNdEepbSHiWrf-34" value="" style="edgeStyle=orthogonalEdgeStyle;rounded=0;orthogonalLoop=1;jettySize=auto;html=1;" edge="1" parent="WIyWlLk6GJQsqaUBKTNV-1" source="qgIhc6_JNdEepbSHiWrf-33" target="qgIhc6_JNdEepbSHiWrf-30">
          <mxGeometry relative="1" as="geometry" />
        </mxCell>
        <mxCell id="qgIhc6_JNdEepbSHiWrf-33" value="Det ble funnet genetiske spor av mistenkte mellomverter i viruspositive prøver fra området" style="rounded=1;whiteSpace=wrap;html=1;fillColor=#d5e8d4;strokeColor=#82b366;" vertex="1" parent="WIyWlLk6GJQsqaUBKTNV-1">
          <mxGeometry x="400" y="365" width="120" height="85" as="geometry" />
        </mxCell>
      </root>
    </mxGraphModel>
  </diagram>
</mxfile>
